<?xml version="1.0" standalone="no"?>
<!DOCTYPE svg PUBLIC "-//W3C//DTD SVG 20010904//EN"
 "http://www.w3.org/TR/2001/REC-SVG-20010904/DTD/svg10.dtd">
<svg version="1.0" xmlns="http://www.w3.org/2000/svg"
 width="225.000000pt" height="225.000000pt" viewBox="0 0 225.000000 225.000000"
 preserveAspectRatio="xMidYMid meet">

<g transform="translate(0.000000,225.000000) scale(0.100000,-0.100000)"
fill="#000000" stroke="none">
<path d="M885 2117 c-120 -44 -215 -173 -215 -292 0 -43 -1 -45 -52 -72 -85
-46 -139 -135 -141 -233 -1 -52 29 -143 58 -174 14 -15 25 -31 25 -36 0 -15
34 -20 69 -10 87 25 111 68 111 203 l0 95 34 25 c108 83 242 122 387 114 112
-7 184 -30 282 -93 l67 -44 0 -95 c0 -58 5 -108 14 -128 17 -41 58 -69 113
-77 39 -6 45 -4 76 29 66 69 87 209 45 298 -43 91 -122 145 -233 157 -33 4
-75 12 -92 17 -34 11 -103 82 -103 106 0 26 -68 120 -113 157 -93 76 -215 95
-332 53z"/>
<path d="M838 1570 c-18 -5 -24 -14 -26 -44 -5 -62 4 -66 145 -66 68 0 133 5
144 10 24 13 26 72 4 90 -16 13 -220 21 -267 10z"/>
<path d="M1147 1462 c-31 -34 -16 -92 24 -92 9 0 19 -9 22 -20 3 -10 17 -22
33 -26 22 -6 31 -2 48 19 18 23 29 26 91 29 l70 3 3 38 c5 63 -4 67 -148 67
-110 0 -129 -2 -143 -18z"/>
<path d="M993 1373 c-25 -5 -30 -22 -11 -41 28 -28 88 -2 74 33 -5 15 -19 17
-63 8z"/>
<path d="M944 1190 c-68 -33 -114 -63 -138 -90 -32 -36 -36 -46 -36 -94 0 -65
27 -110 84 -139 55 -29 82 -26 182 22 l88 43 66 -35 c84 -44 118 -51 171 -37
51 14 95 58 109 110 26 98 -27 156 -233 252 -36 16 -38 16 -44 0 -12 -34 -36
-52 -70 -52 -28 0 -37 6 -54 35 -12 19 -22 35 -22 35 -1 -1 -48 -23 -103 -50z"/>
<path d="M550 330 l0 -60 109 0 c61 0 112 3 114 8 2 4 2 31 -1 60 l-4 52 -109
0 -109 0 0 -60z"/>
<path d="M872 333 l3 -58 250 0 250 0 3 58 3 57 -256 0 -256 0 3 -57z"/>
<path d="M1475 333 l0 -58 113 -3 112 -3 0 61 0 60 -113 0 -112 0 0 -57z"/>
</g>
</svg>
