<?xml version="1.0" standalone="no"?>
<!DOCTYPE svg PUBLIC "-//W3C//DTD SVG 20010904//EN"
 "http://www.w3.org/TR/2001/REC-SVG-20010904/DTD/svg10.dtd">
<svg version="1.0" xmlns="http://www.w3.org/2000/svg"
 width="173.000000pt" height="291.000000pt" viewBox="0 0 173.000000 291.000000"
 preserveAspectRatio="xMidYMid meet">

<g transform="translate(0.000000,291.000000) scale(0.100000,-0.100000)"
fill="#000000" stroke="none">
<path d="M740 2606 c-79 -22 -133 -57 -205 -132 -38 -40 -81 -77 -95 -82 -14
-5 -49 -7 -79 -4 l-54 5 7 -29 c22 -94 117 -138 220 -101 30 10 41 21 51 51
25 72 82 106 150 87 33 -9 38 -7 69 22 32 30 126 163 126 178 0 20 -122 24
-190 5z"/>
<path d="M884 2441 c-12 -5 -31 -22 -44 -38 -17 -22 -21 -36 -17 -68 6 -42 44
-85 75 -85 22 0 47 37 47 70 0 23 3 25 39 22 38 -3 38 -3 32 25 -14 58 -81 95
-132 74z m64 -23 c23 -23 12 -46 -35 -77 -49 -32 -66 -30 -76 10 -8 29 38 79
72 79 15 0 32 -5 39 -12z"/>
<path d="M635 2356 c-32 -32 -40 -69 -25 -107 17 -41 47 -59 96 -59 85 0 125
100 65 161 -39 38 -100 41 -136 5z m99 -8 c14 -20 14 -24 -5 -44 -12 -13 -37
-30 -56 -40 -30 -13 -37 -14 -44 -3 -40 64 62 148 105 87z m42 -73 c9 -22 -13
-44 -36 -38 -23 6 -26 23 -8 41 17 17 37 15 44 -3z"/>
<path d="M815 2237 c-8 -44 -1 -57 31 -57 33 0 33 38 0 69 l-25 23 -6 -35z"/>
<path d="M890 2165 c-7 -9 -29 -15 -53 -15 l-40 0 7 -40 c12 -76 35 -118 67
-125 44 -10 79 16 79 58 0 41 -28 137 -39 137 -5 0 -14 -7 -21 -15z"/>
</g>
</svg>
